<?xml version="1.0" encoding="UTF-8"?>
<!-- Generated by Pixelmator Pro 3.7.1 -->
<svg width="1000" height="1000" viewBox="0 0 1000 1000" xmlns="http://www.w3.org/2000/svg">
    <path id="Path" fill="#3f86b3" fill-rule="evenodd" stroke="none" d="M -93 -91 L 1169 -91 L 1169 1141 L -93 1141 Z"/>
    <path id="Oval" fill="#0b1b22" fill-rule="evenodd" stroke="none" d="M 903 500 C 903 277.42926 722.57074 97 500 97 C 277.42926 97 97 277.42926 97 500 C 97 722.57074 277.42926 903 500 903 C 722.57074 903 903 722.57074 903 500 Z"/>
    <g id="Group-copy">
        <path id="path1" fill="#5cc8ff" fill-rule="evenodd" stroke="none" d="M 484.269958 299.571472 C 483.02478 303.040161 479.885223 307.246582 479.848267 307.308716 C 479.529816 307.846375 476.566986 310.001404 475.447906 310.414673 C 474.643372 310.711853 467.916656 312.812256 467.193237 312.71167 C 466.585754 312.627197 466.610077 313.014832 459.543671 313.223633 C 459.075836 313.237549 453.717133 313.058655 452.904999 312.485718 C 452.498199 312.198608 452.639893 311.818726 452.940735 311.512085 C 457.342651 307.025757 457.50412 307.216064 461.915497 302.750549 C 462.754211 301.901489 462.762695 301.943115 472.433655 292.170532 C 475.673981 288.896118 479.712524 285.390076 481.944 282.872192 C 483.292236 281.350952 485.061005 279.766785 487.003387 277.382568 C 487.113464 277.247498 488.398499 275.670166 488.761536 276.098694 C 490.077576 277.651123 487.22406 289.515686 486.804626 292.085388 C 486.524628 293.800293 484.500031 298.982544 484.269958 299.571472 Z"/>
        <path id="path2" fill="#5cc8ff" fill-rule="evenodd" stroke="none" d="M 411.232758 327.233032 C 411.064453 327.158875 411.091248 327.140686 410.932007 327.070557 C 410.6745 326.957214 410.687012 326.992004 410.447144 326.886963 C 407.436859 325.570374 402.402069 322.030457 401.982971 321.661194 C 396.394318 316.736633 395.939728 317.223511 391.094452 311.540466 C 389.064423 309.159546 392.562531 310.399536 394.214264 310.631653 C 394.288544 310.641968 403.258728 312.097168 405.790039 312.134705 C 407.888062 312.165894 418.076233 313.551208 420.674774 313.818237 C 426.038574 314.369202 432.910522 315.168945 432.975403 315.172913 C 436.748505 315.407043 436.72229 315.442383 440.462402 315.874756 C 442.77298 316.141846 437.81427 320.398315 432.687653 324.001709 C 431.298126 324.978455 431.13324 324.692749 429.879608 325.805969 C 429.828674 325.851135 424.493896 328.17926 422.023712 328.984253 C 421.02536 329.309509 417.470032 329.432007 416.893555 329.249329 C 414.971161 328.640442 413.302826 328.26825 411.232758 327.233032 Z"/>
        <path id="path3" fill="#5cc8ff" stroke="none" d="M 598.638672 722.760925 C 596.937561 719.925903 594.1026 718.224854 591.267578 718.224854 C 588.432556 718.224854 585.597534 719.925903 583.896606 722.760925 C 579.360535 730.131958 557.247437 768.688171 557.247437 787.399292 C 557.247437 809.51239 572.556519 827.656433 591.267578 827.656433 C 609.978699 827.656433 625.28772 809.51239 625.28772 787.399292 C 625.28772 768.688171 603.174683 730.698975 598.638672 722.760925 Z M 591.267578 810.646362 C 582.195557 810.646362 574.824524 800.440308 574.824524 787.966248 C 574.824524 779.461182 583.32959 760.750122 591.267578 745.44104 C 599.205627 760.750122 607.710632 779.461182 607.710632 787.966248 C 607.710632 799.873291 600.339661 810.646362 591.267578 810.646362 Z"/>
        <path id="path4" fill="#5cc8ff" stroke="none" d="M 611.179138 688.683105 C 615.707092 687.056885 618.125305 681.928406 616.499146 677.400391 L 598.611145 627.592163 L 614.991699 556.956787 C 615.204346 555.176392 615.17511 553.908813 614.874817 551.886658 L 554.735352 385.617493 L 578.884827 376.944519 C 583.412842 375.318298 585.831055 370.189819 584.204895 365.661743 L 572.821594 333.965637 C 571.195435 329.437622 566.066956 327.019409 561.53894 328.64563 L 537.389465 337.318604 L 514.080872 272.416931 C 505.107666 246.2453 486.352966 224.864563 463.787567 214.224487 C 446.350677 206.002625 427.037628 204.41864 410.193054 210.894104 C 370.195557 225.258728 351.596497 276.668701 368.942413 324.96759 L 392.251007 389.869202 L 368.101563 398.542175 C 363.573547 400.168335 361.155334 405.296875 362.781525 409.824829 L 374.164795 441.520996 C 374.977875 443.785034 376.787476 445.265137 378.838867 446.232422 C 380.890259 447.199707 383.183472 447.654114 385.447479 446.841064 L 409.596924 438.168091 L 469.494568 604.950195 C 470.036621 606.459473 471.333374 607.697754 472.630096 608.936157 L 530.720093 653.25238 L 548.608032 703.060547 C 549.421143 705.324585 551.230713 706.804749 553.282104 707.772034 C 555.333557 708.739258 557.62677 709.193726 559.890747 708.380615 Z M 387.786194 427.256958 L 382.365601 412.163574 L 406.515045 403.490601 C 408.779022 402.677551 410.259186 400.86792 411.226471 398.816528 C 412.193756 396.765137 412.135315 394.230103 411.835083 392.207947 L 385.545166 319.004883 C 371.180573 279.007385 384.943237 237.854431 416.397552 226.984009 C 429.226929 222.376526 443.198853 223.322693 456.53299 229.610046 C 474.995575 238.315552 490.372925 256.223145 498.745636 278.350403 L 525.035583 351.553406 C 526.661743 356.081421 531.790222 358.499634 536.318237 356.873413 L 560.467712 348.200439 L 565.888306 363.293884 Z M 545.72583 644.029236 C 545.183777 642.519897 543.887024 641.281555 542.590271 640.043213 L 484.500336 595.72699 L 425.686829 431.963623 L 538.887329 391.309082 L 597.700867 555.07251 L 580.836731 626.733582 C 580.624084 628.513916 580.653259 629.781494 580.953491 631.80365 L 596.673218 675.574524 L 561.203735 688.312988 Z"/>
        <path id="path5" fill="#5cc8ff" fill-rule="evenodd" stroke="none" d="M 339 211.871094 L 380.761688 306.752502 L 365.331665 315.907471 Z"/>
        <path id="path6" fill="#5cc8ff" fill-rule="evenodd" stroke="none" d="M 471.192505 172 L 508.77179 258.394409 L 494.178986 267.113892 Z"/>
    </g>
</svg>
