<svg clip-rule="evenodd" fill-rule="evenodd" stroke-linejoin="round" stroke-miterlimit="2" viewBox="0 0 1000 1000" xmlns="http://www.w3.org/2000/svg"><path d="m-93-91h1262v1232h-1262z" fill="#0d3d83"/><g fill="#fff"><g transform="matrix(.15313614013 -.05340527247 .05340527247 .15313614013 350.98209458725 223.26209302877)"><path d="m811.969 176.895c-19.179 23.707-55.168 48.016-55.626 48.401-3.953 3.333-32.972 12.097-42.841 12.276-7.095.13-65.371-1.788-70.749-4.545-4.516-2.315-5.382.78-61.158-16.842-3.693-1.166-45.071-17.164-49.855-23.853-2.396-3.351-.254-5.933 2.932-7.509 46.614-23.057 47.357-21.13 93.988-43.998 8.866-4.348 8.819-4 111.001-54 34.237-16.753 75.341-33.141 99.635-46.732 14.678-8.212 32.813-15.769 54.484-29.104 1.228-.755 15.565-9.577 17.234-5.24 6.052 15.714-48.568 100.633-58.846 119.566-6.86 12.635-36.797 47.606-40.199 51.58z"/><path d="m165.99 194.007c-1.113-1.038-.854-1.107-1.907-2.089-1.703-1.587-1.7-1.281-3.288-2.755-19.931-18.488-49.621-59.862-51.889-63.889-30.245-53.7-35.123-51.135-57.493-108.736-9.373-24.132 14.578-4.914 26.85 1.4.552.283 66.668 36.092 86.342 43.282 16.306 5.96 92.128 44.542 111.702 53.708 40.404 18.919 91.913 43.89 92.409 44.098 28.84 12.109 28.539 12.314 56.581 25.882 17.324 8.382-33.014 28.126-82.884 42.31-13.517 3.845-14.027 1.164-26.854 6.445-.521.214-48.543 3.868-70.035 3.427-8.686-.179-36.796-8.909-40.802-11.907-13.36-9.995-25.38-17.448-38.732-31.176z"/></g><path d="m83.5 76.5c-.3-.5-.8-.8-1.3-.8s-1 .3-1.3.8c-.8 1.3-4.7 8.1-4.7 11.4 0 3.9 2.7 7.1 6 7.1s6-3.2 6-7.1c0-3.3-3.9-10-4.7-11.4zm-1.3 15.5c-1.6 0-2.9-1.8-2.9-4 0-1.5 1.5-4.8 2.9-7.5 1.4 2.7 2.9 6 2.9 7.5 0 2.1-1.3 4-2.9 4z" fill-rule="nonzero" transform="matrix(7.60862977536 0 0 7.60862977536 2.92213886443 192.80689732541)"/><path d="m83.3 69.6c.6-.6.6-1.6 0-2.2l-6.6-6.6-2.7-12.5c-.1-.3-.2-.5-.4-.8l-22.1-22 3.2-3.2c.6-.6.6-1.6 0-2.2l-4.2-4.2c-.6-.6-1.6-.6-2.2 0l-3.2 3.2-8.6-8.6c-3.4-3.5-8-5.5-12.4-5.5-3.4 0-6.6 1.2-8.8 3.5-5.3 5.3-4.4 14.9 2 21.3l8.6 8.6-3.2 3.2c-.6.6-.6 1.6 0 2.2l4.2 4.2c.3.3.7.4 1.1.4s.8-.1 1.1-.4l3.2-3.2 22.1 22.1c.2.2.5.3.8.4l12.6 2.7 6.6 6.6c.3.3.7.4 1.1.4s.8-.1 1.1-.4zm-55.3-24.9-2-2 3.2-3.2c.3-.3.4-.7.4-1.1s-.2-.8-.4-1.1l-9.7-9.7c-5.3-5.3-6.2-12.9-2-17 1.7-1.7 4-2.6 6.6-2.6 3.6 0 7.4 1.7 10.4 4.6l9.7 9.7c.6.6 1.6.6 2.2 0l3.2-3.2 2 2zm41.5 22.7c-.2-.2-.5-.3-.8-.4l-12.6-2.7-21.7-21.7 15-15 21.7 21.7 2.7 12.7c.1.3.2.5.4.8l5.8 5.8-4.7 4.7z" fill-rule="nonzero" transform="matrix(6.88195212519 3.24499025341 -3.24499025341 6.88195212519 307.65552700832 -20.15368074504)"/><path d="m744.5 257 12.11 139.768-20.61 3.232z" transform="matrix(.937223 -.34873 .275593 .740665 -472.585873 189.308277)"/><path d="m744.5 257 12.11 139.768-20.61 3.232z" transform="matrix(.937223 -.34873 .259981 .698707 -294.573564 143.091494)"/></g></svg>